<svg fill="black" baseProfile="tiny" height="100%" version="1.2" width="100%" xmlns="http://www.w3.org/2000/svg" xmlns:ev="http://www.w3.org/2001/xml-events" xmlns:xlink="http://www.w3.org/1999/xlink"><defs /><path d="M 660,525 L 659,526 L 660,527 L 660,658 L 659,659 L 660,660 L 690,660 L 690,620 L 694,616 L 694,615 L 697,612 L 697,611 L 701,607 L 701,606 L 702,605 L 704,607 L 704,608 L 705,609 L 705,610 L 706,611 L 706,612 L 708,614 L 708,615 L 709,616 L 709,617 L 710,618 L 710,619 L 711,620 L 711,621 L 712,622 L 712,623 L 714,625 L 714,626 L 715,627 L 715,628 L 716,629 L 716,630 L 717,631 L 717,632 L 718,633 L 718,634 L 720,636 L 720,637 L 721,638 L 721,639 L 722,640 L 722,641 L 723,642 L 723,643 L 724,644 L 724,645 L 726,647 L 726,648 L 727,649 L 727,650 L 728,651 L 728,652 L 729,653 L 729,654 L 730,655 L 730,656 L 731,657 L 731,658 L 733,660 L 766,660 L 766,659 L 765,658 L 765,657 L 764,656 L 764,655 L 762,653 L 762,652 L 761,651 L 761,650 L 760,649 L 760,648 L 759,647 L 759,646 L 758,645 L 758,644 L 756,642 L 756,641 L 755,640 L 755,639 L 754,638 L 754,637 L 753,636 L 753,635 L 752,634 L 752,633 L 750,631 L 750,630 L 749,629 L 749,628 L 748,627 L 748,626 L 747,625 L 747,624 L 746,623 L 746,622 L 744,620 L 744,619 L 743,618 L 743,617 L 742,616 L 742,615 L 741,614 L 741,613 L 740,612 L 740,611 L 738,609 L 738,608 L 737,607 L 737,606 L 736,605 L 736,604 L 735,603 L 735,602 L 734,601 L 734,600 L 732,598 L 732,597 L 731,596 L 731,595 L 730,594 L 730,593 L 729,592 L 729,591 L 728,590 L 728,589 L 726,587 L 726,586 L 725,585 L 725,584 L 724,583 L 724,582 L 723,581 L 723,580 L 722,579 L 725,576 L 725,575 L 728,572 L 728,571 L 731,568 L 731,567 L 734,564 L 734,563 L 737,560 L 737,559 L 740,556 L 740,555 L 743,552 L 743,551 L 746,548 L 746,547 L 749,544 L 749,543 L 752,540 L 752,539 L 755,536 L 755,535 L 759,531 L 759,530 L 761,528 L 761,527 L 763,525 L 729,525 L 729,526 L 727,528 L 727,529 L 724,532 L 724,533 L 722,535 L 722,536 L 719,539 L 719,540 L 717,542 L 717,543 L 714,546 L 714,547 L 712,549 L 712,550 L 709,553 L 709,554 L 707,556 L 707,557 L 704,560 L 704,561 L 702,563 L 702,564 L 700,566 L 700,567 L 697,570 L 697,571 L 695,573 L 695,574 L 692,577 L 692,578 L 691,579 L 690,578 L 690,525 Z" fill="black" /><path d="M 540,525 L 540,660 L 570,660 L 570,610 L 571,609 L 572,610 L 585,610 L 586,611 L 586,612 L 587,613 L 587,614 L 588,615 L 588,616 L 589,617 L 589,619 L 590,620 L 590,621 L 591,622 L 591,624 L 592,625 L 592,626 L 593,627 L 593,628 L 594,629 L 594,630 L 595,631 L 595,633 L 596,634 L 596,635 L 597,636 L 597,637 L 598,638 L 598,640 L 599,641 L 599,642 L 600,643 L 600,644 L 601,645 L 601,647 L 602,648 L 602,649 L 603,650 L 603,651 L 604,652 L 604,654 L 605,655 L 605,656 L 606,657 L 606,658 L 607,659 L 607,660 L 640,660 L 639,659 L 639,658 L 638,657 L 638,656 L 637,655 L 637,653 L 636,652 L 636,651 L 635,650 L 635,649 L 634,648 L 634,647 L 633,646 L 633,645 L 632,644 L 632,642 L 631,641 L 631,640 L 630,639 L 630,638 L 629,637 L 629,636 L 628,635 L 628,633 L 627,632 L 627,631 L 626,630 L 626,629 L 625,628 L 625,627 L 624,626 L 624,624 L 623,623 L 623,622 L 622,621 L 622,620 L 621,619 L 621,618 L 620,617 L 620,616 L 619,615 L 619,613 L 618,612 L 618,611 L 617,610 L 617,609 L 616,608 L 616,607 L 615,606 L 617,604 L 618,604 L 619,603 L 620,603 L 621,602 L 622,602 L 629,595 L 629,594 L 631,592 L 631,591 L 632,590 L 632,589 L 633,588 L 633,587 L 634,586 L 634,584 L 635,583 L 635,580 L 636,579 L 636,574 L 637,573 L 637,562 L 636,561 L 636,556 L 635,555 L 635,553 L 634,552 L 634,550 L 633,549 L 633,548 L 632,547 L 632,546 L 631,545 L 631,544 L 630,543 L 630,542 L 622,534 L 621,534 L 619,532 L 618,532 L 617,531 L 616,531 L 615,530 L 614,530 L 613,529 L 611,529 L 610,528 L 609,528 L 608,527 L 605,527 L 604,526 L 599,526 L 598,525 Z" fill="black" /><path d="M 234,525 L 234,530 L 235,531 L 235,534 L 236,535 L 236,539 L 237,540 L 237,543 L 238,544 L 238,548 L 239,549 L 239,552 L 240,553 L 240,557 L 241,558 L 241,561 L 242,562 L 242,566 L 243,567 L 243,570 L 244,571 L 244,575 L 245,576 L 245,579 L 246,580 L 246,584 L 247,585 L 247,588 L 248,589 L 248,593 L 249,594 L 249,597 L 250,598 L 250,602 L 251,603 L 251,606 L 252,607 L 252,611 L 253,612 L 253,615 L 254,616 L 254,620 L 255,621 L 255,624 L 256,625 L 256,629 L 257,630 L 257,633 L 258,634 L 258,638 L 259,639 L 259,643 L 260,644 L 260,647 L 261,648 L 261,652 L 262,653 L 262,656 L 263,657 L 263,660 L 298,660 L 298,659 L 299,658 L 299,655 L 300,654 L 300,651 L 301,650 L 301,647 L 302,646 L 302,642 L 303,641 L 303,638 L 304,637 L 304,634 L 305,633 L 305,630 L 306,629 L 306,626 L 307,625 L 307,621 L 308,620 L 308,617 L 309,616 L 309,613 L 310,612 L 310,609 L 311,608 L 311,604 L 312,603 L 312,600 L 313,599 L 313,596 L 314,595 L 314,591 L 315,590 L 315,587 L 316,586 L 316,583 L 317,582 L 317,580 L 318,579 L 319,580 L 319,584 L 320,585 L 320,588 L 321,589 L 321,592 L 322,593 L 322,596 L 323,597 L 323,601 L 324,602 L 324,605 L 325,606 L 325,609 L 326,610 L 326,613 L 327,614 L 327,617 L 328,618 L 328,622 L 329,623 L 329,626 L 330,627 L 330,631 L 331,632 L 331,635 L 332,636 L 332,639 L 333,640 L 333,644 L 334,645 L 334,648 L 335,649 L 335,652 L 336,653 L 336,657 L 337,658 L 337,660 L 372,660 L 372,657 L 373,656 L 373,652 L 374,651 L 374,647 L 375,646 L 375,643 L 376,642 L 376,638 L 377,637 L 377,634 L 378,633 L 378,629 L 379,628 L 379,624 L 380,623 L 380,620 L 381,619 L 381,615 L 382,614 L 382,611 L 383,610 L 383,606 L 384,605 L 384,601 L 385,600 L 385,597 L 386,596 L 386,592 L 387,591 L 387,588 L 388,587 L 388,583 L 389,582 L 389,579 L 390,578 L 390,574 L 391,573 L 391,570 L 392,569 L 392,565 L 393,564 L 393,561 L 394,560 L 394,556 L 395,555 L 395,551 L 396,550 L 396,547 L 397,546 L 397,542 L 398,541 L 398,538 L 399,537 L 399,533 L 400,532 L 400,529 L 401,528 L 401,525 L 372,525 L 372,526 L 371,527 L 371,532 L 370,533 L 370,537 L 369,538 L 369,542 L 368,543 L 368,548 L 367,549 L 367,553 L 366,554 L 366,558 L 365,559 L 365,563 L 364,564 L 364,568 L 363,569 L 363,574 L 362,575 L 362,579 L 361,580 L 361,584 L 360,585 L 360,590 L 359,591 L 359,595 L 358,596 L 358,600 L 357,601 L 357,605 L 356,606 L 356,610 L 355,611 L 355,616 L 354,617 L 353,616 L 353,615 L 352,614 L 352,610 L 351,609 L 351,606 L 350,605 L 350,601 L 349,600 L 349,597 L 348,596 L 348,592 L 347,591 L 347,587 L 346,586 L 346,582 L 345,581 L 345,578 L 344,577 L 344,573 L 343,572 L 343,569 L 342,568 L 342,564 L 341,563 L 341,559 L 340,558 L 340,554 L 339,553 L 339,549 L 338,548 L 338,545 L 337,544 L 337,540 L 336,539 L 336,535 L 335,534 L 335,531 L 334,530 L 334,526 L 333,525 L 303,525 L 303,528 L 302,529 L 302,533 L 301,534 L 301,538 L 300,539 L 300,542 L 299,543 L 299,547 L 298,548 L 298,552 L 297,553 L 297,556 L 296,557 L 296,561 L 295,562 L 295,566 L 294,567 L 294,571 L 293,572 L 293,575 L 292,576 L 292,580 L 291,581 L 291,585 L 290,586 L 290,589 L 289,590 L 289,594 L 288,595 L 288,599 L 287,600 L 287,603 L 286,604 L 286,608 L 285,609 L 285,612 L 284,613 L 284,617 L 283,618 L 282,617 L 282,613 L 281,612 L 281,608 L 280,607 L 280,603 L 279,602 L 279,598 L 278,597 L 278,592 L 277,591 L 277,587 L 276,586 L 276,582 L 275,581 L 275,577 L 274,576 L 274,571 L 273,570 L 273,566 L 272,565 L 272,561 L 271,560 L 271,556 L 270,555 L 270,550 L 269,549 L 269,545 L 268,544 L 268,540 L 267,539 L 267,534 L 266,533 L 266,529 L 265,528 L 265,525 Z" fill="black" /><path d="M 809,523 L 808,524 L 805,524 L 804,525 L 802,525 L 801,526 L 799,526 L 798,527 L 797,527 L 796,528 L 795,528 L 794,529 L 793,529 L 792,530 L 791,530 L 782,539 L 782,540 L 781,541 L 781,542 L 780,543 L 780,544 L 779,545 L 779,546 L 778,547 L 778,549 L 777,550 L 777,553 L 776,554 L 776,572 L 777,573 L 777,575 L 778,576 L 778,578 L 779,579 L 779,580 L 780,581 L 780,582 L 782,584 L 782,585 L 789,592 L 790,592 L 792,594 L 793,594 L 794,595 L 795,595 L 796,596 L 797,596 L 798,597 L 800,597 L 801,598 L 802,598 L 803,599 L 805,599 L 806,600 L 808,600 L 809,601 L 811,601 L 812,602 L 814,602 L 815,603 L 817,603 L 818,604 L 820,604 L 821,605 L 822,605 L 823,606 L 825,606 L 826,607 L 828,607 L 829,608 L 831,608 L 832,609 L 833,609 L 835,611 L 836,611 L 841,616 L 841,617 L 842,618 L 842,627 L 841,628 L 841,629 L 840,630 L 840,631 L 838,633 L 837,633 L 836,634 L 835,634 L 834,635 L 833,635 L 832,636 L 829,636 L 828,637 L 817,637 L 816,636 L 813,636 L 812,635 L 811,635 L 805,629 L 805,628 L 804,627 L 804,626 L 803,625 L 803,623 L 802,622 L 802,618 L 771,618 L 771,626 L 772,627 L 772,631 L 773,632 L 773,634 L 774,635 L 774,637 L 775,638 L 775,639 L 776,640 L 776,641 L 778,643 L 778,644 L 781,647 L 781,648 L 783,650 L 784,650 L 788,654 L 789,654 L 790,655 L 791,655 L 792,656 L 793,656 L 794,657 L 795,657 L 796,658 L 797,658 L 798,659 L 800,659 L 801,660 L 804,660 L 805,661 L 809,661 L 810,662 L 832,662 L 833,661 L 837,661 L 838,660 L 841,660 L 842,659 L 844,659 L 845,658 L 847,658 L 848,657 L 849,657 L 850,656 L 851,656 L 852,655 L 853,655 L 855,653 L 856,653 L 860,649 L 861,649 L 862,648 L 862,647 L 866,643 L 866,642 L 867,641 L 867,640 L 868,639 L 868,638 L 869,637 L 869,635 L 870,634 L 870,631 L 871,630 L 871,614 L 870,613 L 870,610 L 869,609 L 869,607 L 868,606 L 868,605 L 867,604 L 867,603 L 866,602 L 866,601 L 864,599 L 864,598 L 860,594 L 859,594 L 856,591 L 855,591 L 853,589 L 852,589 L 851,588 L 850,588 L 849,587 L 847,587 L 846,586 L 845,586 L 844,585 L 842,585 L 841,584 L 839,584 L 838,583 L 836,583 L 835,582 L 833,582 L 832,581 L 829,581 L 828,580 L 826,580 L 825,579 L 823,579 L 822,578 L 820,578 L 819,577 L 818,577 L 817,576 L 816,576 L 815,575 L 814,575 L 813,574 L 812,574 L 811,573 L 810,573 L 806,569 L 806,568 L 805,567 L 805,566 L 804,565 L 804,558 L 805,557 L 805,555 L 806,554 L 806,553 L 810,549 L 811,549 L 812,548 L 814,548 L 815,547 L 825,547 L 826,548 L 829,548 L 830,549 L 831,549 L 833,551 L 834,551 L 835,552 L 835,553 L 837,555 L 837,556 L 838,557 L 838,559 L 839,560 L 839,564 L 860,564 L 861,565 L 867,565 L 867,557 L 866,556 L 866,552 L 865,551 L 865,549 L 864,548 L 864,546 L 863,545 L 863,544 L 862,543 L 862,542 L 860,540 L 860,539 L 857,536 L 857,535 L 855,533 L 854,533 L 851,530 L 850,530 L 848,528 L 847,528 L 846,527 L 844,527 L 843,526 L 842,526 L 841,525 L 838,525 L 837,524 L 834,524 L 833,523 Z" fill="black" /><path d="M 455,523 L 454,524 L 450,524 L 449,525 L 446,525 L 445,526 L 444,526 L 443,527 L 441,527 L 440,528 L 439,528 L 438,529 L 437,529 L 436,530 L 435,530 L 433,532 L 432,532 L 429,535 L 428,535 L 423,540 L 423,541 L 420,544 L 420,545 L 419,546 L 419,547 L 418,548 L 418,549 L 417,550 L 417,551 L 416,552 L 416,554 L 415,555 L 415,557 L 414,558 L 414,563 L 413,564 L 413,621 L 414,622 L 414,627 L 415,628 L 415,631 L 416,632 L 416,633 L 417,634 L 417,636 L 418,637 L 418,638 L 419,639 L 419,640 L 421,642 L 421,643 L 425,647 L 425,648 L 428,651 L 429,651 L 432,654 L 433,654 L 434,655 L 435,655 L 437,657 L 438,657 L 439,658 L 440,658 L 441,659 L 443,659 L 444,660 L 447,660 L 448,661 L 451,661 L 452,662 L 461,662 L 462,663 L 469,663 L 470,662 L 477,662 L 478,661 L 482,661 L 483,660 L 485,660 L 486,659 L 487,659 L 488,658 L 489,658 L 490,657 L 492,657 L 494,655 L 495,655 L 497,653 L 498,653 L 501,650 L 502,650 L 505,647 L 505,646 L 509,642 L 509,641 L 511,639 L 511,638 L 512,637 L 512,636 L 513,635 L 513,634 L 514,633 L 514,631 L 515,630 L 515,628 L 516,627 L 516,623 L 517,622 L 517,564 L 516,563 L 516,558 L 515,557 L 515,555 L 514,554 L 514,552 L 513,551 L 513,549 L 511,547 L 511,546 L 510,545 L 510,544 L 508,542 L 508,541 L 501,534 L 500,534 L 497,531 L 496,531 L 495,530 L 494,530 L 493,529 L 492,529 L 490,527 L 488,527 L 487,526 L 485,526 L 484,525 L 482,525 L 481,524 L 477,524 L 476,523 Z" fill="black" /><path d="M 644,467 L 643,468 L 641,468 L 640,469 L 639,469 L 637,471 L 636,471 L 635,472 L 635,473 L 634,474 L 634,475 L 633,476 L 633,477 L 632,478 L 632,487 L 633,488 L 633,490 L 635,492 L 635,493 L 636,494 L 637,494 L 639,496 L 641,496 L 642,497 L 650,497 L 651,496 L 652,496 L 653,495 L 654,495 L 658,491 L 658,490 L 660,488 L 660,485 L 661,484 L 661,478 L 660,477 L 660,475 L 658,473 L 658,472 L 656,470 L 655,470 L 654,469 L 653,469 L 652,468 L 650,468 L 649,467 Z" fill="black" /><path d="M 779,465 L 778,466 L 776,466 L 775,467 L 774,467 L 773,468 L 772,468 L 770,470 L 770,471 L 769,472 L 769,473 L 768,474 L 768,475 L 767,476 L 767,485 L 768,486 L 768,488 L 770,490 L 770,491 L 771,492 L 772,492 L 774,494 L 775,494 L 776,495 L 785,495 L 786,494 L 787,494 L 788,493 L 789,493 L 794,488 L 794,487 L 795,486 L 795,484 L 796,483 L 796,476 L 795,475 L 795,473 L 794,472 L 794,471 L 790,467 L 789,467 L 788,466 L 785,466 L 784,465 Z" fill="black" /><path d="M 725,356 L 725,455 L 724,456 L 724,460 L 723,461 L 723,462 L 722,463 L 722,464 L 721,465 L 721,466 L 719,468 L 718,468 L 717,469 L 716,469 L 715,470 L 712,470 L 711,471 L 708,471 L 707,470 L 703,470 L 702,469 L 701,469 L 697,465 L 697,464 L 696,463 L 696,461 L 695,460 L 695,455 L 694,454 L 694,451 L 665,451 L 665,458 L 666,459 L 666,466 L 667,467 L 667,470 L 668,471 L 668,473 L 669,474 L 669,475 L 670,476 L 670,477 L 671,478 L 671,479 L 673,481 L 673,482 L 680,489 L 681,489 L 683,491 L 684,491 L 685,492 L 686,492 L 687,493 L 689,493 L 690,494 L 692,494 L 693,495 L 697,495 L 698,496 L 719,496 L 720,495 L 724,495 L 725,494 L 728,494 L 729,493 L 730,493 L 731,492 L 733,492 L 735,490 L 736,490 L 737,489 L 738,489 L 746,481 L 746,480 L 748,478 L 748,477 L 749,476 L 749,475 L 750,474 L 750,473 L 751,472 L 751,470 L 752,469 L 752,466 L 753,465 L 753,462 L 754,461 L 754,452 L 755,451 L 755,356 Z" fill="black" /><path d="M 569,354 L 568,355 L 562,355 L 561,356 L 558,356 L 557,357 L 555,357 L 554,358 L 553,358 L 552,359 L 550,359 L 549,360 L 548,360 L 546,362 L 545,362 L 543,364 L 542,364 L 536,370 L 536,371 L 533,374 L 533,375 L 532,376 L 532,377 L 531,378 L 531,379 L 530,380 L 530,381 L 529,382 L 529,384 L 528,385 L 528,387 L 527,388 L 527,391 L 526,392 L 526,398 L 525,399 L 525,451 L 526,452 L 526,459 L 527,460 L 527,463 L 528,464 L 528,466 L 529,467 L 529,468 L 530,469 L 530,471 L 531,472 L 531,473 L 533,475 L 533,476 L 534,477 L 534,478 L 544,488 L 545,488 L 547,490 L 548,490 L 549,491 L 550,491 L 551,492 L 552,492 L 553,493 L 555,493 L 556,494 L 559,494 L 560,495 L 564,495 L 565,496 L 586,496 L 587,495 L 592,495 L 593,494 L 595,494 L 596,493 L 598,493 L 599,492 L 600,492 L 601,491 L 602,491 L 603,490 L 604,490 L 605,489 L 606,489 L 608,487 L 609,487 L 618,478 L 618,477 L 620,475 L 620,474 L 621,473 L 621,472 L 622,471 L 622,470 L 623,469 L 623,468 L 624,467 L 624,465 L 625,464 L 625,462 L 626,461 L 626,458 L 627,457 L 627,453 L 598,453 L 598,456 L 597,457 L 597,458 L 596,459 L 596,460 L 594,462 L 594,463 L 591,466 L 590,466 L 588,468 L 587,468 L 586,469 L 583,469 L 582,470 L 573,470 L 572,469 L 570,469 L 569,468 L 567,468 L 565,466 L 564,466 L 560,462 L 560,461 L 558,459 L 558,458 L 557,457 L 557,455 L 556,454 L 556,450 L 555,449 L 555,401 L 556,400 L 556,396 L 557,395 L 557,393 L 558,392 L 558,391 L 559,390 L 559,389 L 565,383 L 566,383 L 567,382 L 568,382 L 569,381 L 570,381 L 571,380 L 584,380 L 585,381 L 587,381 L 588,382 L 589,382 L 595,388 L 595,389 L 596,390 L 596,391 L 597,392 L 597,394 L 598,395 L 598,398 L 628,398 L 627,397 L 627,392 L 626,391 L 626,388 L 625,387 L 625,385 L 624,384 L 624,382 L 623,381 L 623,380 L 622,379 L 622,378 L 621,377 L 621,376 L 620,375 L 620,374 L 618,372 L 618,371 L 614,367 L 614,366 L 613,365 L 612,365 L 608,361 L 607,361 L 606,360 L 605,360 L 604,359 L 603,359 L 602,358 L 601,358 L 600,357 L 598,357 L 597,356 L 595,356 L 594,355 L 588,355 L 587,354 Z" fill="black" /><path d="M 355,336 L 354,337 L 326,337 L 325,338 L 324,338 L 323,339 L 322,339 L 319,342 L 318,342 L 314,346 L 313,346 L 311,348 L 310,348 L 309,349 L 308,349 L 307,350 L 306,350 L 305,351 L 302,351 L 301,352 L 287,352 L 286,353 L 284,353 L 281,356 L 281,357 L 280,358 L 280,361 L 279,362 L 279,367 L 278,368 L 278,392 L 279,393 L 279,396 L 282,399 L 283,399 L 284,400 L 319,400 L 320,401 L 322,401 L 323,402 L 324,402 L 327,405 L 328,405 L 331,408 L 331,409 L 333,411 L 333,412 L 335,414 L 335,415 L 336,416 L 336,418 L 337,419 L 337,421 L 338,422 L 338,425 L 339,426 L 339,501 L 386,501 L 386,425 L 387,424 L 387,418 L 388,417 L 388,415 L 389,414 L 389,412 L 390,411 L 390,409 L 391,408 L 391,407 L 393,405 L 393,404 L 396,401 L 396,400 L 398,398 L 399,398 L 402,395 L 403,395 L 404,394 L 405,394 L 406,393 L 407,393 L 408,392 L 409,392 L 410,391 L 412,391 L 413,390 L 418,390 L 419,389 L 426,389 L 427,390 L 432,390 L 433,391 L 436,391 L 437,392 L 440,392 L 441,393 L 443,393 L 444,394 L 446,394 L 447,395 L 448,395 L 449,396 L 450,396 L 451,397 L 452,397 L 453,398 L 455,398 L 456,399 L 457,399 L 459,401 L 460,401 L 461,402 L 462,402 L 463,403 L 464,403 L 466,405 L 467,405 L 469,407 L 470,407 L 472,409 L 473,409 L 477,413 L 478,413 L 482,417 L 483,417 L 487,421 L 488,421 L 489,422 L 493,422 L 496,419 L 496,414 L 495,413 L 495,411 L 494,410 L 494,408 L 493,407 L 493,406 L 492,405 L 492,404 L 491,403 L 491,402 L 490,401 L 490,400 L 489,399 L 489,398 L 488,397 L 488,396 L 487,395 L 487,394 L 485,392 L 485,391 L 483,389 L 483,388 L 481,386 L 481,385 L 478,382 L 478,381 L 473,376 L 473,375 L 465,367 L 464,367 L 459,362 L 458,362 L 455,359 L 454,359 L 451,356 L 450,356 L 448,354 L 447,354 L 446,353 L 445,353 L 443,351 L 442,351 L 441,350 L 440,350 L 439,349 L 438,349 L 437,348 L 436,348 L 435,347 L 434,347 L 433,346 L 431,346 L 430,345 L 429,345 L 428,344 L 426,344 L 425,343 L 424,343 L 423,342 L 421,342 L 420,341 L 417,341 L 416,340 L 413,340 L 412,339 L 408,339 L 407,338 L 401,338 L 400,337 L 386,337 L 385,336 Z" fill="black" /><path d="M 233,323 L 232,324 L 228,324 L 227,325 L 225,325 L 224,326 L 222,326 L 221,327 L 219,327 L 218,328 L 217,328 L 216,329 L 214,329 L 213,330 L 212,330 L 211,331 L 210,331 L 209,332 L 208,332 L 206,334 L 205,334 L 204,335 L 203,335 L 200,338 L 199,338 L 196,341 L 195,341 L 188,348 L 188,349 L 185,352 L 185,353 L 182,356 L 182,357 L 180,359 L 180,360 L 179,361 L 179,362 L 178,363 L 178,364 L 177,365 L 177,366 L 176,367 L 176,369 L 175,370 L 175,371 L 174,372 L 174,374 L 173,375 L 173,377 L 172,378 L 172,382 L 171,383 L 171,387 L 170,388 L 170,411 L 171,412 L 171,418 L 172,419 L 172,423 L 173,424 L 173,432 L 174,433 L 174,436 L 173,437 L 173,445 L 172,446 L 172,449 L 171,450 L 171,452 L 170,453 L 170,455 L 169,456 L 169,457 L 168,458 L 168,459 L 167,460 L 167,461 L 165,463 L 165,464 L 163,466 L 163,467 L 160,470 L 160,471 L 155,476 L 155,477 L 149,483 L 149,484 L 143,490 L 143,491 L 138,496 L 138,497 L 132,503 L 132,504 L 126,510 L 126,511 L 121,516 L 121,517 L 114,524 L 114,525 L 108,531 L 108,532 L 102,538 L 102,539 L 97,544 L 97,545 L 90,552 L 90,553 L 84,559 L 84,560 L 79,565 L 79,566 L 73,572 L 73,573 L 67,579 L 67,580 L 62,585 L 62,586 L 55,593 L 55,594 L 50,599 L 50,600 L 46,604 L 46,605 L 44,607 L 44,608 L 43,609 L 43,610 L 42,611 L 42,612 L 41,613 L 41,616 L 40,617 L 40,623 L 39,624 L 39,627 L 40,628 L 40,632 L 41,633 L 41,635 L 42,636 L 42,637 L 43,638 L 43,639 L 44,640 L 44,641 L 52,649 L 53,649 L 54,650 L 55,650 L 56,651 L 57,651 L 58,652 L 61,652 L 62,653 L 73,653 L 74,652 L 77,652 L 78,651 L 79,651 L 80,650 L 81,650 L 82,649 L 83,649 L 85,647 L 86,647 L 92,641 L 92,640 L 95,637 L 95,636 L 99,632 L 99,631 L 103,627 L 103,626 L 106,623 L 106,622 L 110,618 L 110,617 L 114,613 L 114,612 L 117,609 L 117,608 L 121,604 L 121,603 L 125,599 L 125,598 L 128,595 L 128,594 L 132,590 L 132,589 L 136,585 L 136,584 L 139,581 L 139,580 L 143,576 L 143,575 L 146,572 L 146,571 L 150,567 L 150,566 L 153,563 L 153,562 L 157,558 L 157,557 L 161,553 L 161,552 L 164,549 L 164,548 L 168,544 L 168,543 L 172,539 L 172,538 L 175,535 L 175,534 L 179,530 L 179,529 L 182,526 L 182,525 L 186,521 L 186,520 L 190,516 L 190,515 L 193,512 L 193,511 L 197,507 L 197,506 L 200,503 L 200,502 L 213,489 L 214,489 L 217,486 L 218,486 L 220,484 L 221,484 L 222,483 L 223,483 L 224,482 L 226,482 L 227,481 L 228,481 L 229,480 L 232,480 L 233,479 L 238,479 L 239,478 L 250,478 L 251,477 L 259,477 L 260,476 L 263,476 L 264,475 L 267,475 L 268,474 L 270,474 L 271,473 L 273,473 L 274,472 L 275,472 L 276,471 L 277,471 L 278,470 L 279,470 L 280,469 L 281,469 L 282,468 L 283,468 L 285,466 L 286,466 L 289,463 L 290,463 L 298,455 L 298,454 L 302,450 L 302,449 L 304,447 L 304,446 L 305,445 L 305,444 L 306,443 L 306,442 L 307,441 L 307,440 L 308,439 L 308,438 L 309,437 L 309,435 L 310,434 L 310,433 L 311,432 L 311,429 L 312,428 L 312,422 L 309,419 L 305,419 L 304,420 L 303,420 L 302,421 L 300,421 L 299,422 L 298,422 L 297,423 L 296,423 L 295,424 L 294,424 L 293,425 L 292,425 L 291,426 L 290,426 L 289,427 L 288,427 L 287,428 L 286,428 L 284,430 L 283,430 L 282,431 L 281,431 L 280,432 L 279,432 L 278,433 L 277,433 L 276,434 L 274,434 L 273,435 L 270,435 L 269,436 L 266,436 L 265,435 L 263,435 L 262,434 L 261,434 L 257,430 L 257,429 L 234,406 L 234,405 L 214,385 L 214,384 L 213,383 L 213,382 L 212,381 L 212,377 L 213,376 L 213,374 L 214,373 L 214,372 L 215,371 L 215,370 L 217,368 L 217,367 L 222,362 L 222,361 L 251,332 L 251,330 L 252,329 L 252,327 L 251,326 L 251,325 L 250,324 L 249,324 L 248,323 Z" fill="black" /></svg>